<svg width="170" height="41" viewBox="0 0 170 41" fill="none" xmlns="http://www.w3.org/2000/svg">
<path d="M0.513 28.614H6.612C6.65 29.792 6.973 30.856 7.581 31.806C8.227 32.756 9.101 33.497 10.203 34.029C11.305 34.561 12.578 34.827 14.022 34.827C15.314 34.827 16.549 34.523 17.727 33.915C18.905 33.307 19.855 32.376 20.577 31.122C21.337 29.868 21.717 28.253 21.717 26.277V0.627H27.759V26.277C27.759 29.431 27.113 32.034 25.821 34.086C24.567 36.138 22.914 37.658 20.862 38.646C18.81 39.672 16.587 40.185 14.193 40.185C11.343 40.185 8.911 39.691 6.897 38.703C4.883 37.753 3.325 36.404 2.223 34.656C1.159 32.908 0.589 30.894 0.513 28.614ZM0 13.623C0 10.697 0.589 8.246 1.767 6.27C2.945 4.256 4.503 2.717 6.441 1.653C8.417 0.588999 10.526 0.0569993 12.768 0.0569993C14.972 0.0569993 16.891 0.607999 18.525 1.71C20.197 2.774 21.508 4.313 22.458 6.327C23.446 8.341 23.94 10.773 23.94 13.623C23.94 16.435 23.446 18.848 22.458 20.862C21.508 22.876 20.197 24.434 18.525 25.536C16.891 26.6 14.972 27.132 12.768 27.132C10.526 27.132 8.417 26.6 6.441 25.536C4.503 24.472 2.945 22.933 1.767 20.919C0.589 18.905 0 16.473 0 13.623ZM6.384 13.623C6.384 15.371 6.745 16.853 7.467 18.069C8.189 19.285 9.139 20.216 10.317 20.862C11.533 21.47 12.844 21.774 14.25 21.774C15.428 21.774 16.587 21.47 17.727 20.862C18.905 20.254 19.855 19.342 20.577 18.126C21.337 16.872 21.717 15.371 21.717 13.623C21.717 12.255 21.489 11.077 21.033 10.089C20.615 9.063 20.045 8.208 19.323 7.524C18.601 6.802 17.784 6.27 16.872 5.928C15.998 5.586 15.124 5.415 14.25 5.415C12.844 5.415 11.533 5.738 10.317 6.384C9.139 6.992 8.189 7.904 7.467 9.12C6.745 10.336 6.384 11.837 6.384 13.623Z" fill="white"/>
<path d="M46.7934 27.417C44.1334 27.417 41.7774 26.847 39.7254 25.707C37.7114 24.567 36.1534 22.971 35.0514 20.919C33.9494 18.867 33.3984 16.473 33.3984 13.737C33.3984 10.963 33.9494 8.55 35.0514 6.498C36.1914 4.446 37.7874 2.869 39.8394 1.767C41.8914 0.626999 44.3044 0.0569993 47.0784 0.0569993C49.8524 0.0569993 52.2084 0.588999 54.1464 1.653C56.0844 2.717 57.5664 4.256 58.5924 6.27C59.6564 8.246 60.1884 10.64 60.1884 13.452C60.1884 13.756 60.1694 14.079 60.1314 14.421C60.1314 14.763 60.1124 15.01 60.0744 15.162H37.0464V10.944H54.8304L52.9494 13.566C53.0634 13.338 53.1774 13.034 53.2914 12.654C53.4434 12.236 53.5194 11.894 53.5194 11.628C53.5194 10.222 53.2344 9.006 52.6644 7.98C52.1324 6.954 51.3724 6.156 50.3844 5.586C49.4344 5.016 48.3134 4.731 47.0214 4.731C45.4634 4.731 44.1334 5.073 43.0314 5.757C41.9294 6.441 41.0934 7.429 40.5234 8.721C39.9534 10.013 39.6494 11.609 39.6114 13.509C39.6114 15.409 39.8964 17.024 40.4664 18.354C41.0364 19.646 41.8724 20.634 42.9744 21.318C44.1144 22.002 45.4824 22.344 47.0784 22.344C48.7504 22.344 50.2134 22.002 51.4674 21.318C52.7214 20.634 53.7664 19.589 54.6024 18.183L59.9034 20.349C58.5354 22.705 56.7684 24.472 54.6024 25.65C52.4364 26.828 49.8334 27.417 46.7934 27.417Z" fill="white"/>
<path d="M69.9403 18.696C69.9403 19.57 70.1493 20.33 70.5673 20.976C70.9853 21.584 71.5553 22.04 72.2773 22.344C73.0373 22.648 73.8923 22.8 74.8423 22.8C76.0583 22.8 77.1603 22.553 78.1483 22.059C79.1743 21.565 79.9913 20.843 80.5993 19.893C81.2453 18.905 81.5683 17.765 81.5683 16.473L82.4803 19.893C82.4803 21.565 81.9863 22.971 80.9983 24.111C80.0483 25.213 78.8323 26.049 77.3503 26.619C75.9063 27.151 74.4243 27.417 72.9043 27.417C71.2703 27.417 69.7503 27.094 68.3443 26.448C66.9383 25.802 65.8173 24.852 64.9813 23.598C64.1453 22.344 63.7273 20.824 63.7273 19.038C63.7273 16.492 64.6203 14.478 66.4063 12.996C68.1923 11.476 70.7193 10.716 73.9873 10.716C75.7353 10.716 77.2363 10.906 78.4903 11.286C79.7823 11.666 80.8463 12.122 81.6823 12.654C82.5183 13.148 83.1073 13.604 83.4493 14.022V17.157C82.2713 16.321 81.0173 15.713 79.6873 15.333C78.3573 14.953 76.9513 14.763 75.4693 14.763C74.1773 14.763 73.1323 14.934 72.3343 15.276C71.5363 15.58 70.9283 16.017 70.5103 16.587C70.1303 17.157 69.9403 17.86 69.9403 18.696ZM68.0023 7.467L65.4943 3.135C66.6723 2.413 68.1923 1.71 70.0543 1.026C71.9543 0.342 74.1203 0 76.5523 0C78.7183 0 80.6183 0.323 82.2523 0.968999C83.9243 1.615 85.2353 2.546 86.1853 3.762C87.1353 4.94 87.6103 6.403 87.6103 8.151V26.847H81.5683V9.348C81.5683 8.512 81.4163 7.828 81.1123 7.296C80.8463 6.764 80.4663 6.327 79.9723 5.985C79.4783 5.643 78.8893 5.396 78.2053 5.244C77.5213 5.092 76.7803 5.016 75.9823 5.016C74.7663 5.016 73.6073 5.168 72.5053 5.472C71.4413 5.738 70.5103 6.08 69.7123 6.498C68.9523 6.878 68.3823 7.201 68.0023 7.467Z" fill="white"/>
<path d="M100.886 0.627V26.847H94.787V0.627H100.886ZM108.695 7.182C108.125 6.726 107.593 6.384 107.099 6.156C106.605 5.928 105.978 5.814 105.218 5.814C104.192 5.814 103.356 6.08 102.71 6.612C102.064 7.144 101.589 7.885 101.285 8.835C101.019 9.747 100.886 10.83 100.886 12.084L98.834 10.887C98.834 8.797 99.214 6.954 99.974 5.358C100.772 3.724 101.779 2.432 102.995 1.482C104.249 0.531999 105.541 0.0569993 106.871 0.0569993C107.821 0.0569993 108.714 0.209 109.55 0.513C110.386 0.779 111.089 1.273 111.659 1.995L108.695 7.182Z" fill="white"/>
<path d="M140.808 0.627L123.708 39.387H117.153L123.993 23.769L113.448 0.627H120.516L128.895 21.375L125.988 21.204L134.196 0.627H140.808Z" fill="white"/>
<path d="M141.665 13.737C141.665 11.039 142.273 8.664 143.489 6.612C144.743 4.56 146.434 2.964 148.562 1.824C150.69 0.646 153.103 0.0569993 155.801 0.0569993C158.499 0.0569993 160.893 0.646 162.983 1.824C165.111 2.964 166.802 4.56 168.056 6.612C169.31 8.664 169.937 11.039 169.937 13.737C169.937 16.397 169.31 18.772 168.056 20.862C166.802 22.914 165.111 24.529 162.983 25.707C160.893 26.847 158.499 27.417 155.801 27.417C153.103 27.417 150.69 26.847 148.562 25.707C146.434 24.529 144.743 22.914 143.489 20.862C142.273 18.772 141.665 16.397 141.665 13.737ZM147.992 13.737C147.992 15.371 148.334 16.815 149.018 18.069C149.702 19.285 150.633 20.254 151.811 20.976C152.989 21.66 154.319 22.002 155.801 22.002C157.245 22.002 158.556 21.66 159.734 20.976C160.95 20.254 161.9 19.285 162.584 18.069C163.268 16.815 163.61 15.371 163.61 13.737C163.61 12.103 163.268 10.659 162.584 9.405C161.9 8.151 160.95 7.182 159.734 6.498C158.556 5.814 157.245 5.472 155.801 5.472C154.319 5.472 152.989 5.814 151.811 6.498C150.633 7.182 149.702 8.151 149.018 9.405C148.334 10.659 147.992 12.103 147.992 13.737Z" fill="white"/>
<path fill-rule="evenodd" clip-rule="evenodd" d="M169.062 33.8467L143.062 33.8467V28.8467L169.062 28.8467V33.8467Z" fill="white"/>
</svg>
